<?xml version="1.0" standalone="no"?>
<!DOCTYPE svg PUBLIC "-//W3C//DTD SVG 20010904//EN"
 "http://www.w3.org/TR/2001/REC-SVG-20010904/DTD/svg10.dtd">
<svg version="1.0" xmlns="http://www.w3.org/2000/svg"
 width="512.000000pt" height="512.000000pt" viewBox="0 0 512.000000 512.000000"
 preserveAspectRatio="xMidYMid meet">
<metadata>
Created by potrace 1.11, written by Peter Selinger 2001-2013
</metadata>
<g transform="translate(0.000000,512.000000) scale(0.100000,-0.100000)"
fill="#000000" stroke="none">
<path d="M340 5113 c-152 -26 -274 -134 -321 -284 -18 -59 -19 -130 -19 -2269
0 -2139 1 -2210 19 -2269 39 -125 135 -226 254 -268 50 -17 147 -18 2287 -18
2126 0 2238 1 2287 18 118 41 215 144 254 266 19 61 19 111 19 2271 0 2139 -1
2210 -19 2269 -38 123 -123 215 -243 264 l-53 22 -2220 1 c-1221 1 -2231 -1
-2245 -3z"/>
</g>
</svg>
